<svg width="13" height="13" viewBox="0 0 13 13" fill="none" xmlns="http://www.w3.org/2000/svg">
<path d="M6.16024 2.47471C8.62709 1.63374 9.8605 1.21326 10.5239 1.87667C11.1873 2.54008 10.7668 3.77351 9.92591 6.24036L9.35321 7.92024C8.70739 9.81475 8.38445 10.762 7.8521 10.8404C7.70903 10.8615 7.5609 10.8488 7.41927 10.8033C6.89265 10.6343 6.61426 9.63551 6.05747 7.63802C5.93398 7.19495 5.87223 6.97339 5.73159 6.80418C5.69077 6.75509 5.64551 6.70983 5.59642 6.66901C5.42721 6.52836 5.20565 6.46662 4.76261 6.34313C2.7651 5.78634 1.76634 5.50794 1.59726 4.98131C1.5518 4.83972 1.53912 4.69158 1.56019 4.54847C1.63858 4.01615 2.58585 3.69323 4.48036 3.04738L6.16024 2.47471Z" stroke="white" stroke-width="1.5"/>
</svg>
